<svg width="21" height="21" viewBox="0 0 21 21" fill="none" xmlns="http://www.w3.org/2000/svg">
<path d="M11.4365 0.866227C11.1923 0.631888 10.8612 0.500244 10.516 0.500244C10.1707 0.500244 9.83961 0.631888 9.59545 0.866227L0.481453 9.61623C0.244284 9.85198 0.11305 10.1677 0.116016 10.4955C0.118983 10.8232 0.255912 11.1367 0.497314 11.3685C0.738715 11.6003 1.06527 11.7317 1.40665 11.7346C1.74803 11.7374 2.07692 11.6114 2.32248 11.3837L2.70397 11.0175V19.25C2.70397 19.5815 2.84114 19.8995 3.08531 20.1339C3.32949 20.3683 3.66066 20.5 4.00597 20.5H6.60997C6.95528 20.5 7.28645 20.3683 7.53062 20.1339C7.77479 19.8995 7.91197 19.5815 7.91197 19.25V16.75C7.91197 16.4185 8.04914 16.1005 8.29331 15.8661C8.53749 15.6317 8.86865 15.5 9.21397 15.5H11.818C12.1633 15.5 12.4944 15.6317 12.7386 15.8661C12.9828 16.1005 13.12 16.4185 13.12 16.75V19.25C13.12 19.5815 13.2571 19.8995 13.5013 20.1339C13.7455 20.3683 14.0767 20.5 14.422 20.5H17.026C17.3713 20.5 17.7024 20.3683 17.9466 20.1339C18.1908 19.8995 18.328 19.5815 18.328 19.25V11.0175L18.7094 11.3837C18.955 11.6114 19.2839 11.7374 19.6253 11.7346C19.9667 11.7317 20.2932 11.6003 20.5346 11.3685C20.776 11.1367 20.913 10.8232 20.9159 10.4955C20.9189 10.1677 20.7876 9.85198 20.5505 9.61623L11.4365 0.866227V0.866227Z" fill="#D9D9D9"/>
</svg>
