<?xml version="1.0" standalone="no"?>
<!DOCTYPE svg PUBLIC "-//W3C//DTD SVG 20010904//EN"
 "http://www.w3.org/TR/2001/REC-SVG-20010904/DTD/svg10.dtd">
<svg version="1.0" xmlns="http://www.w3.org/2000/svg"
 width="410.000000pt" height="576.000000pt" viewBox="0 0 410.000000 576.000000"
 preserveAspectRatio="xMidYMid meet">
<metadata>
Created by potrace 1.16, written by Peter Selinger 2001-2019
</metadata>
<g transform="translate(0.000000,576.000000) scale(0.100000,-0.100000)"
fill="#000000" stroke="none">
<path d="M1965 5450 c-20 -9 -20 -9 1 -9 11 -1 43 -12 71 -26 38 -19 54 -34
62 -57 17 -47 14 -55 -17 -50 -18 2 -33 -2 -41 -12 -12 -14 -9 -18 23 -31 20
-9 39 -22 43 -30 8 -23 20 -18 26 13 5 24 14 31 63 46 63 20 104 54 104 86 0
12 -4 19 -9 16 -5 -3 -53 10 -107 29 -99 35 -175 44 -219 25z"/>
<path d="M1685 5384 c-114 -20 -179 -41 -258 -80 -88 -45 -149 -102 -176 -164
-22 -51 -20 -72 10 -105 10 -11 18 -22 17 -25 0 -6 12 -35 43 -105 12 -27 24
-60 25 -73 2 -12 13 -35 24 -50 l22 -27 -49 -5 -48 -5 65 -14 c36 -8 74 -15
85 -16 11 0 25 -3 30 -6 6 -4 22 -9 38 -13 15 -4 50 -20 78 -37 55 -34 127
-59 171 -59 15 0 28 -4 28 -10 0 -5 6 -10 13 -10 20 0 92 -80 125 -140 41 -72
62 -158 62 -246 0 -45 5 -75 13 -82 15 -13 6 149 -13 218 -35 129 -99 238
-155 265 -20 9 -34 19 -31 23 3 3 30 7 59 8 29 2 66 8 83 14 l29 12 -48 18
c-27 10 -64 30 -82 45 -81 61 -311 139 -347 116 -14 -9 -26 -8 -56 5 -20 10
-41 18 -47 18 -5 1 -22 26 -37 56 -24 45 -31 77 -40 177 -13 147 -11 153 68
153 53 0 53 0 63 -37 6 -21 11 -50 11 -65 0 -42 17 -77 45 -90 39 -18 61 9 68
82 4 45 16 80 49 142 l45 82 64 22 c74 26 65 28 -46 8z"/>
<path d="M1060 4666 c0 -3 9 -15 21 -27 14 -14 19 -30 17 -57 -3 -33 -6 -37
-33 -39 -49 -2 -51 -3 -31 -18 11 -8 31 -16 45 -16 21 -1 22 -2 6 -6 -11 -2
-35 -11 -54 -20 -19 -8 -62 -16 -96 -17 -59 -1 -60 -2 -33 -13 16 -7 56 -18
88 -25 41 -8 60 -17 60 -27 0 -8 12 8 26 37 28 56 93 120 149 146 19 10 35 19
35 22 0 3 -4 3 -9 -1 -5 -3 -20 5 -33 18 -16 16 -42 27 -74 31 -27 4 -57 9
-66 12 -10 3 -18 3 -18 0z"/>
<path d="M1548 4438 c-37 -58 -47 -128 -27 -189 32 -94 114 -119 175 -53 37
38 55 85 36 92 -18 6 -15 52 4 52 12 0 14 7 9 33 -12 56 -24 66 -25 21 0 -67
-16 -69 -93 -12 -45 32 -67 54 -63 64 8 21 0 17 -16 -8z"/>
<path d="M1041 4360 c-1 -25 -4 -45 -14 -90 -20 -85 -48 -252 -44 -256 3 -3 8
14 12 38 10 58 24 84 20 34 -5 -48 5 -100 16 -89 4 4 15 60 24 123 16 111 14
195 -5 244 -8 20 -9 19 -9 -4z"/>
<path d="M3025 4320 c-9 -10 -22 -18 -29 -17 -6 1 -10 -6 -8 -17 2 -10 0 -16
-5 -13 -13 8 -16 -120 -3 -157 6 -19 19 -41 30 -51 11 -10 18 -21 15 -24 -2
-4 6 -7 17 -7 14 0 35 20 64 60 38 51 42 61 28 69 -11 6 -14 17 -10 33 4 13 3
23 -1 22 -5 -2 -29 15 -55 36 -46 38 -47 41 -33 63 19 28 14 30 -10 3z"/>
<path d="M2096 4057 c-5 -11 -4 -28 2 -40 5 -12 16 -37 23 -55 6 -19 17 -39
23 -46 16 -17 41 -61 82 -144 0 -1 12 2 25 7 13 5 18 10 12 10 -7 1 -12 4 -11
9 3 9 -32 103 -44 118 -14 19 -39 114 -33 124 9 15 -9 12 -31 -5 -27 -20 -32
-19 -36 13 -4 23 -5 24 -12 9z"/>
<path d="M1967 4043 c-8 -12 -57 -212 -57 -230 0 -14 28 -43 41 -43 5 0 14 12
20 28 10 25 39 173 39 198 0 19 -36 58 -43 47z"/>
<path d="M1048 3752 c-64 -35 -68 -39 -68 -73 0 -24 5 -39 15 -43 28 -10 15
-25 -27 -29 -24 -3 -7 -4 37 -3 55 2 98 10 138 25 l59 23 -26 27 c-13 14 -33
45 -43 68 l-18 42 -67 -37z"/>
<path d="M1690 3669 c-60 -12 -274 -38 -330 -39 -43 -2 -44 -2 -15 -11 29 -9
163 1 283 20 28 4 52 7 52 5 0 -1 -5 -15 -10 -29 -7 -19 -7 -39 0 -66 12 -44
37 -59 96 -59 30 0 34 -3 34 -26 0 -36 17 -64 41 -64 19 0 19 0 -1 40 -24 47
-24 50 -6 50 9 0 16 17 21 46 8 55 1 67 -13 25 -19 -53 -38 -38 -53 42 -16 81
-18 82 -99 66z"/>
<path d="M2098 3486 c-24 -18 -23 -26 4 -26 72 0 248 -67 248 -94 0 -15 32
-29 70 -30 18 -1 26 -7 28 -23 3 -24 -15 -31 -33 -14 -6 5 -25 7 -43 4 l-33
-5 53 -25 c29 -14 80 -31 113 -39 l60 -14 -108 4 c-154 7 -276 -9 -355 -45
-73 -33 -76 -34 -66 -17 16 26 -17 -5 -58 -55 -23 -28 -35 -46 -25 -38 16 13
25 2 10 -12 -14 -15 -52 -185 -53 -237 0 -30 -3 -65 -6 -76 l-6 -21 -49 18
c-27 11 -60 19 -74 19 -13 0 -27 5 -30 10 -3 6 -14 10 -24 10 -10 0 -26 9 -35
19 -10 11 -25 17 -36 14 -14 -4 -23 2 -31 21 -7 14 -24 33 -37 42 l-26 17 20
-25 c10 -14 58 -73 106 -132 47 -60 97 -129 110 -154 22 -43 29 -48 70 -55
l47 -9 8 -56 c4 -32 8 -124 8 -207 0 -135 -3 -160 -28 -250 -16 -55 -30 -111
-32 -125 -2 -14 -47 -178 -100 -365 -53 -187 -110 -389 -126 -450 -61 -226
-61 -225 -96 -252 -28 -22 -46 -26 -145 -32 l-113 -7 75 -13 c41 -7 78 -15 82
-17 4 -3 0 -20 -8 -40 -14 -33 -14 -35 3 -30 10 2 40 8 66 12 31 4 53 13 60
25 7 11 24 19 42 20 16 0 39 5 50 10 17 8 15 9 -11 6 -30 -3 -30 -2 -18 22 14
29 69 216 204 706 193 696 185 656 164 899 -8 89 -15 229 -15 312 0 272 47
382 190 440 62 26 77 28 259 32 l194 4 -4 29 -5 29 86 2 c47 0 70 3 51 5 -58
7 -55 19 9 37 34 9 61 19 61 22 0 3 -52 3 -116 0 -92 -4 -122 -2 -149 11 -31
15 -55 48 -55 77 0 36 -59 60 -230 90 -69 13 -132 26 -140 29 -8 4 -23 0 -32
-7z"/>
<path d="M2900 3183 c13 -28 20 -32 54 -33 62 0 81 -26 126 -170 45 -142 132
-494 154 -618 14 -84 9 -186 -14 -262 -5 -19 -7 -44 -3 -55 10 -32 43 118 43
198 0 74 -16 156 -95 482 -58 241 -106 397 -131 433 -18 26 -51 42 -109 51
l-41 7 16 -33z"/>
<path d="M568 2522 c-35 -21 -42 -57 -35 -168 3 -57 1 -85 -7 -88 -6 -3 3 -5
19 -4 52 3 195 -14 195 -23 0 -5 24 -9 53 -9 28 0 93 -5 142 -11 107 -14 194
-13 332 2 l101 12 17 89 c10 49 16 90 14 92 -2 2 -31 17 -64 34 -33 17 -80 45
-105 61 l-45 31 -295 0 c-260 -1 -298 -3 -322 -18z"/>
<path d="M1783 2223 c-15 -5 -22 -31 -74 -269 -44 -201 -62 -374 -33 -321 8
15 26 44 39 64 15 21 25 50 25 70 0 27 8 42 35 66 26 23 35 39 35 62 0 17 6
40 14 51 20 28 45 141 41 184 -1 23 -8 36 -19 38 -9 2 -14 8 -11 13 4 5 2 9
-4 9 -6 0 -8 6 -5 14 5 14 -22 26 -43 19z"/>
<path d="M3095 1843 c-121 -10 -241 -35 -302 -63 -82 -37 -169 -102 -179 -132
-4 -13 -25 -48 -47 -78 l-41 -55 64 65 c78 78 163 136 256 175 38 16 77 35 86
43 9 8 21 12 25 9 5 -3 29 -1 54 4 24 6 78 17 119 24 71 12 54 16 -35 8z"/>
<path d="M2432 1318 c-17 -40 -38 -100 -47 -133 -37 -133 -88 -276 -106 -297
-17 -21 -19 -21 -13 -3 5 18 4 18 -6 3 -6 -10 -19 -18 -28 -19 -13 0 -12 -3 6
-11 13 -7 22 -20 22 -33 0 -23 -33 -60 -47 -52 -5 3 -19 -1 -33 -9 -25 -15
-25 -15 10 -11 19 3 78 12 130 20 52 9 128 22 169 28 58 9 80 17 104 40 16 16
30 29 31 29 1 0 1 -64 2 -143 0 -131 3 -149 31 -234 29 -87 93 -215 113 -228
6 -3 10 -11 10 -16 0 -6 -6 -7 -12 -2 -25 15 55 -78 102 -119 47 -41 110 -84
110 -75 0 2 -18 16 -40 31 -55 36 -116 92 -142 130 -12 17 7 1 42 -35 36 -36
86 -78 113 -93 26 -15 45 -32 41 -37 -3 -5 1 -7 8 -4 7 3 36 -4 63 -14 28 -11
44 -20 37 -21 -7 0 -29 7 -49 15 -20 8 -38 14 -40 11 -2 -2 13 -10 34 -18 29
-11 86 -15 233 -15 107 0 187 2 176 6 -14 6 -9 10 25 20 24 7 61 22 82 32 21
11 42 17 48 14 5 -4 8 -2 7 3 -2 6 14 22 35 36 42 29 52 32 41 14 -12 -22 96
85 119 117 11 17 -10 -1 -47 -40 -66 -68 -66 -68 -13 -7 69 76 132 202 153
301 17 85 19 251 4 331 -12 64 -39 151 -50 164 -5 5 -101 3 -222 -3 -201 -11
-300 -8 -448 14 l-35 6 25 -18 c92 -65 151 -175 158 -294 6 -102 -2 -140 -38
-178 -17 -17 -30 -35 -30 -41 0 -17 -71 -90 -104 -107 -100 -52 -239 15 -306
147 -46 91 -60 236 -30 315 7 19 -13 138 -26 154 -7 9 -119 -36 -269 -107
-174 -82 -228 -95 -233 -54 -2 12 6 42 17 65 11 23 43 123 70 222 28 99 57
200 66 224 25 72 10 58 -23 -21z"/>
<path d="M1260 1189 c-30 -5 -57 -14 -61 -20 -4 -7 -12 -8 -18 -5 -14 9 -81
-131 -81 -169 0 -23 2 -24 20 -15 35 19 258 33 346 22 44 -6 87 -13 96 -17 15
-6 15 -3 3 37 -7 24 -23 70 -36 102 -19 48 -29 60 -49 63 -74 10 -171 11 -220
2z m173 -18 c57 -9 60 -12 52 -43 -6 -24 -8 -25 -58 -16 -59 11 -211 -4 -233
-23 -18 -14 -32 -3 -17 12 6 6 9 17 7 24 -8 19 12 28 86 41 78 15 101 15 163
5z"/>
<path d="M480 811 c-6 -16 -20 -37 -31 -47 -28 -25 -24 -32 24 -37 41 -3 41
-4 -9 -5 -42 -2 -53 -6 -57 -22 -3 -13 -1 -18 6 -13 7 4 8 0 4 -11 -4 -9 -3
-15 2 -12 5 4 21 -14 35 -38 31 -53 107 -131 147 -152 17 -8 27 -19 24 -24 -4
-6 1 -7 11 -3 10 3 15 2 12 -3 -4 -5 4 -10 15 -10 12 -1 49 -7 82 -14 139 -29
374 7 508 78 70 36 71 37 61 21 -4 -8 6 -2 23 12 36 31 104 107 84 95 -9 -6
-12 -5 -9 5 3 8 11 13 17 11 7 -1 10 2 6 8 -3 5 -19 10 -34 10 -16 0 -34 6
-40 13 -8 11 -5 17 17 28 26 14 26 14 -33 17 -70 4 -109 -4 -99 -20 5 -8 -15
-8 -72 -2 -43 5 -100 8 -126 8 -27 -1 -48 3 -48 7 0 5 -8 9 -19 9 -32 0 -47
27 -34 61 l12 30 -52 -3 c-48 -3 -52 -5 -55 -30 -2 -15 1 -35 7 -45 9 -18 6
-18 -62 -8 -58 9 -80 8 -112 -3 -33 -12 -45 -12 -70 -1 l-30 12 35 7 c33 7 33
7 6 9 -29 1 -30 7 -11 53 5 14 -2 18 -42 23 -26 4 -55 9 -64 11 -11 3 -20 -5
-29 -25z"/>
</g>
</svg>
